<svg width="1440" height="1024" viewBox="0 0 1440 1024" fill="none" xmlns="http://www.w3.org/2000/svg">
<rect width="1440" height="1024" fill="#F5F5F5"/>
<rect width="1440" height="1024" fill="white"/>
<path d="M235.754 301L252 308.759L194.449 442L157 301L171.319 305.013L180.13 301L194.449 308.759L207.116 301L222.261 308.759L235.754 301Z" fill="#DC0553" stroke="black"/>
<rect width="117.599" height="23.1389" transform="matrix(0.948852 -0.31572 0.330772 0.943711 78 245.78)" fill="#04D759"/>
<rect width="117.599" height="23.1389" transform="matrix(0.948852 -0.31572 0.330772 0.943711 777 246.129)" fill="#04D759"/>
<rect width="91.0067" height="22.5679" transform="matrix(0.993949 -0.109843 -0.0548462 0.998495 1186.24 259.996)" fill="#1BC7DE"/>
<rect width="91.0067" height="22.5679" transform="matrix(0.993949 -0.109843 -0.0548462 0.998495 1181.24 303.996)" fill="#09B8DE"/>
<rect width="91.0067" height="22.5679" transform="matrix(0.993949 -0.109843 -0.0548462 0.998495 1179.24 348.996)" fill="#09B8DE"/>
<rect x="103" y="262" width="30" height="115" fill="#1D6F9D"/>
<rect x="1163" y="257" width="30" height="115" fill="#F918D5"/>
<path d="M963.814 361C943.328 403.91 927.141 378.879 921.608 361H896C936.214 453.366 974.089 399.486 988 361H963.814Z" fill="#DF7B06"/>
<rect x="896" y="260" width="27" height="104" fill="#F16427"/>
<rect x="961" y="262" width="27" height="104" fill="#F16427"/>
<rect x="802" y="262.349" width="30" height="115" fill="#1D6F9D"/>
<rect x="286" y="268" width="29" height="109" fill="#CF20EC"/>
<path d="M318.494 221.57L348.672 221.747L370.1 238.562L372.752 264.148L355.385 286.532L326.128 295.24L298.668 286.199L285.856 263.638L293.686 238.114L318.494 221.57Z" fill="#FBE30D"/>
<ellipse rx="9.72582" ry="10.7253" transform="matrix(0.958442 -0.285288 0.305795 0.952097 330.043 257.453)" fill="#D9D9D9"/>
<path d="M481.849 337.503L453.692 362.132L417.897 362.695L391.214 338.929L386.126 301.954L405.016 269.071L439.044 255.666L472.288 268.012L489.193 300.332L481.849 337.503Z" fill="#DC0553"/>
<ellipse rx="12.0825" ry="14.8676" transform="matrix(0.498941 0.866636 -0.897291 0.441439 437.195 310.834)" fill="#D9D9D9"/>
<path d="M597.178 337.348L569.021 361.977L533.227 362.54L506.543 338.774L501.456 301.799L520.345 268.916L554.373 255.512L587.617 267.858L604.522 300.177L597.178 337.348Z" fill="#DC0553"/>
<ellipse rx="12.0825" ry="14.8676" transform="matrix(0.498941 0.866636 -0.897291 0.441439 552.524 310.679)" fill="#D9D9D9"/>
<rect width="24.5833" height="115.153" transform="matrix(0.832375 -0.554213 0.574211 0.818708 640.323 265.392)" fill="#D9D9D9"/>
<rect width="24.784" height="101.958" transform="matrix(0.999984 0.00558711 -0.00588534 0.999983 640.372 254.988)" fill="#08AC05"/>
<rect width="24.784" height="101.958" transform="matrix(0.999984 0.00558711 -0.00588534 0.999983 709.216 259.817)" fill="#08AC05"/>
<path d="M1041 377V319H1097.74C1125.38 345.346 1109.25 368.644 1097.74 377H1041Z" fill="#9D24A8"/>
<path d="M1041 320V262H1097.74C1125.38 288.346 1109.25 311.644 1097.74 320H1041Z" fill="#B63098"/>
<rect x="1041" y="262" width="18" height="115" fill="#670ADE"/>
<path d="M1075 300V282H1086.82C1092.58 290.176 1089.22 297.407 1086.82 300H1075Z" fill="white"/>
<path d="M1077 357V339H1088.82C1094.58 347.176 1091.22 354.407 1088.82 357H1077Z" fill="white"/>
</svg>
